<?xml version="1.0" encoding="UTF-8"?>
<svg width="175px" height="118px" viewBox="0 0 175 118" version="1.1" xmlns="http://www.w3.org/2000/svg" xmlns:xlink="http://www.w3.org/1999/xlink">
    <title>logo-gemeente-amsterdam</title>
    <g id="PDF" stroke="none" stroke-width="1" fill="none" fill-rule="evenodd">
        <g id="SIA-pdf-logo-toevoegen" transform="translate(-42.000000, -23.000000)" fill="#EC0000">
            <g id="Atom/Logo/Desktop" transform="translate(42.000000, 23.000000)">
                <path d="M62.66128,19.7852537 C65.22384,19.7852537 67.12288,19.3273433 68.77024,18.526 L68.77024,10.1233433 L62.56976,10.1233433 L62.56976,12.5044776 L65.97888,12.5044776 L65.97888,16.6256716 C65.06368,17.0148955 63.98832,17.1980597 62.7528,17.1980597 C59.18352,17.1980597 56.98704,14.6795522 56.98704,11.2223284 C56.98704,7.87958209 59.2064,5.29238806 62.61552,5.29238806 C64.3544,5.29238806 65.93312,6.02504478 66.7568,6.94086567 L68.74736,4.78868657 C67.4432,3.57522388 65.17808,2.75098507 62.59264,2.75098507 C57.6048,2.75098507 53.80672,6.02504478 53.80672,11.2223284 C53.80672,16.2593433 57.44464,19.7852537 62.66128,19.7852537 Z M77.3962451,19.6936716 C79.4554451,19.6936716 81.0341651,18.9610149 82.1095251,17.4957015 L80.2791251,16.0303881 C79.6613651,16.9233134 78.7461651,17.4499104 77.3733651,17.4499104 C75.7717651,17.4499104 74.3532051,16.3051343 74.2388051,14.7482388 L82.5900051,14.7482388 C82.6128851,14.4963881 82.6128851,14.2674328 82.6128851,14.0155821 C82.6128851,10.0775522 80.3477651,8.06274627 77.3047251,8.06274627 C74.0100051,8.06274627 71.4932051,10.3980896 71.4932051,13.9468955 C71.4932051,17.518597 74.0100051,19.6936716 77.3962451,19.6936716 Z M79.8672851,12.7792239 L74.2388051,12.7792239 C74.3532051,11.2223284 75.6344851,10.1233433 77.2818451,10.1233433 C79.0664851,10.1233433 79.8672851,11.382597 79.8672851,12.7792239 Z M88.0128103,19.3731343 L88.0128103,13.3287164 C88.0128103,11.863403 88.7678503,10.3522985 90.4152103,10.3522985 C91.8108903,10.3522985 92.4515303,11.3597015 92.4515303,12.7334328 L92.4515303,19.3731343 L95.1971303,19.3731343 L95.1971303,13.3745075 C95.1971303,11.9778806 95.9064103,10.3522985 97.6224103,10.3522985 C99.3841703,10.3522985 99.6816103,11.9778806 99.6816103,13.2829254 L99.6816103,19.3731343 L102.42721,19.3731343 L102.42721,12.5044776 C102.42721,10.2378209 101.23745,8.06274627 98.3774503,8.06274627 C96.7300903,8.06274627 95.4945703,8.79540299 94.7624103,10.1462388 C94.1446503,8.88698507 93.0464103,8.06274627 91.3304103,8.06274627 C89.5686503,8.06274627 88.4017703,9.07014925 87.9212903,10.1462388 L87.8755303,10.1462388 L87.8755303,8.38328358 L85.2672103,8.38328358 L85.2672103,19.3731343 L88.0128103,19.3731343 Z M110.893055,19.6936716 C112.952255,19.6936716 114.530975,18.9610149 115.606335,17.4957015 L113.775935,16.0303881 C113.158175,16.9233134 112.242975,17.4499104 110.870175,17.4499104 C109.268575,17.4499104 107.850015,16.3051343 107.735615,14.7482388 L116.086815,14.7482388 C116.109695,14.4963881 116.109695,14.2674328 116.109695,14.0155821 C116.109695,10.0775522 113.844575,8.06274627 110.801535,8.06274627 C107.506815,8.06274627 104.990015,10.3980896 104.990015,13.9468955 C104.990015,17.518597 107.506815,19.6936716 110.893055,19.6936716 Z M113.364095,12.7792239 L107.735615,12.7792239 C107.850015,11.2223284 109.131295,10.1233433 110.778655,10.1233433 C112.563295,10.1233433 113.364095,11.382597 113.364095,12.7792239 Z M124.026421,19.6936716 C126.085621,19.6936716 127.664341,18.9610149 128.739701,17.4957015 L126.909301,16.0303881 C126.291541,16.9233134 125.376341,17.4499104 124.003541,17.4499104 C122.401941,17.4499104 120.983381,16.3051343 120.868981,14.7482388 L129.220181,14.7482388 C129.243061,14.4963881 129.243061,14.2674328 129.243061,14.0155821 C129.243061,10.0775522 126.977941,8.06274627 123.934901,8.06274627 C120.640181,8.06274627 118.123381,10.3980896 118.123381,13.9468955 C118.123381,17.518597 120.640181,19.6936716 124.026421,19.6936716 Z M126.497461,12.7792239 L120.868981,12.7792239 C120.983381,11.2223284 122.264661,10.1233433 123.912021,10.1233433 C125.696661,10.1233433 126.497461,11.382597 126.497461,12.7792239 Z M134.642986,19.3731343 L134.642986,13.3287164 C134.642986,11.863403 135.466666,10.3522985 137.205546,10.3522985 C138.967306,10.3522985 139.264746,11.9778806 139.264746,13.2829254 L139.264746,19.3731343 L142.010346,19.3731343 L142.010346,12.5044776 C142.010346,10.2378209 140.820586,8.06274627 137.960586,8.06274627 C136.313226,8.06274627 135.031946,9.04725373 134.551466,10.1462388 L134.505706,10.1462388 L134.505706,8.38328358 L131.897386,8.38328358 L131.897386,19.3731343 L134.642986,19.3731343 Z M149.126271,19.6020896 C149.744031,19.6020896 150.476191,19.4876119 150.956671,19.3044478 L150.865151,17.1522687 C150.521951,17.3125373 150.064351,17.3812239 149.698271,17.3812239 C148.485631,17.3812239 148.256831,16.6714627 148.256831,15.6869552 L148.256831,10.5812537 L151.002431,10.5812537 L151.002431,8.38328358 L148.256831,8.38328358 L148.256831,5.20080597 L145.556991,5.20080597 L145.556991,8.38328358 L143.635071,8.38328358 L143.635071,10.5812537 L145.556991,10.5812537 L145.556991,15.7098507 C145.556991,17.8162388 146.220511,19.6020896 149.126271,19.6020896 Z M157.843796,19.6936716 C159.902996,19.6936716 161.481716,18.9610149 162.557076,17.4957015 L160.726676,16.0303881 C160.108916,16.9233134 159.193716,17.4499104 157.820916,17.4499104 C156.219316,17.4499104 154.800756,16.3051343 154.686356,14.7482388 L163.037556,14.7482388 C163.060436,14.4963881 163.060436,14.2674328 163.060436,14.0155821 C163.060436,10.0775522 160.795316,8.06274627 157.752276,8.06274627 C154.457556,8.06274627 151.940756,10.3980896 151.940756,13.9468955 C151.940756,17.518597 154.457556,19.6936716 157.843796,19.6936716 Z M160.314836,12.7792239 L154.686356,12.7792239 C154.800756,11.2223284 156.082036,10.1233433 157.729396,10.1233433 C159.514036,10.1233433 160.314836,11.382597 160.314836,12.7792239 Z M55.84304,42.2686567 L57.30736,38.5595821 L64.33152,38.5595821 L65.8416,42.2686567 L69.13632,42.2686567 L62.15792,26.0586269 L59.664,26.0586269 L52.61696,42.2686567 L55.84304,42.2686567 Z M63.3248,36.0868657 L58.2912,36.0868657 L60.83088,29.4929552 L63.3248,36.0868657 Z M73.3464851,42.2686567 L73.3464851,36.2242388 C73.3464851,34.7589254 74.1015251,33.2478209 75.7488851,33.2478209 C77.1445651,33.2478209 77.7852051,34.2552239 77.7852051,35.6289552 L77.7852051,42.2686567 L80.5308051,42.2686567 L80.5308051,36.2700299 C80.5308051,34.873403 81.2400851,33.2478209 82.9560851,33.2478209 C84.7178451,33.2478209 85.0152851,34.873403 85.0152851,36.1784478 L85.0152851,42.2686567 L87.7608851,42.2686567 L87.7608851,35.4 C87.7608851,33.1333433 86.5711251,30.9582687 83.7111251,30.9582687 C82.0637651,30.9582687 80.8282451,31.6909254 80.0960851,33.0417612 C79.4783251,31.7825075 78.3800851,30.9582687 76.6640851,30.9582687 C74.9023251,30.9582687 73.7354451,31.9656716 73.2549651,33.0417612 L73.2092051,33.0417612 L73.2092051,31.278806 L70.6008851,31.278806 L70.6008851,42.2686567 L73.3464851,42.2686567 Z M94.1675303,42.589194 C96.5699303,42.589194 98.7435303,41.6046866 98.7435303,38.9259104 C98.7435303,36.7966269 96.8444903,36.0181791 95.1971303,35.6518507 C93.6412903,35.2855224 92.8176103,35.0565672 92.8176103,34.2094328 C92.8176103,33.3622985 93.6870503,33.0188657 94.5793703,33.0188657 C95.5860903,33.0188657 96.5012903,33.5683582 96.9817703,34.2094328 L98.7664103,32.6296418 C97.8740903,31.5077612 96.2267303,30.9582687 94.6480103,30.9582687 C92.4744103,30.9582687 90.2779303,32.0114627 90.2779303,34.4612836 C90.2779303,36.5218806 91.8795303,37.2087463 93.5268903,37.5750746 C95.1971303,37.9642985 96.0436903,38.2390448 96.0436903,39.1548657 C96.0436903,40.1393731 95.0827303,40.4599104 94.2819303,40.4599104 C93.0921703,40.4599104 92.0854503,39.8875224 91.4676903,39.0861791 L89.6601703,40.7804478 C90.7355303,41.9481194 92.4515303,42.589194 94.1675303,42.589194 Z M105.035775,42.4976119 C105.653535,42.4976119 106.385695,42.3831343 106.866175,42.1999701 L106.774655,40.047791 C106.431455,40.2080597 105.973855,40.2767463 105.607775,40.2767463 C104.395135,40.2767463 104.166335,39.5669851 104.166335,38.5824776 L104.166335,33.4767761 L106.911935,33.4767761 L106.911935,31.278806 L104.166335,31.278806 L104.166335,28.0963284 L101.466495,28.0963284 L101.466495,31.278806 L99.5445754,31.278806 L99.5445754,33.4767761 L101.466495,33.4767761 L101.466495,38.6053731 C101.466495,40.7117612 102.130015,42.4976119 105.035775,42.4976119 Z M113.753301,42.589194 C115.812501,42.589194 117.391221,41.8565373 118.466581,40.3912239 L116.636181,38.9259104 C116.018421,39.8188358 115.103221,40.3454328 113.730421,40.3454328 C112.128821,40.3454328 110.710261,39.2006567 110.595861,37.6437612 L118.947061,37.6437612 C118.969941,37.3919104 118.969941,37.1629552 118.969941,36.9111045 C118.969941,32.9730746 116.704821,30.9582687 113.661781,30.9582687 C110.367061,30.9582687 107.850261,33.2936119 107.850261,36.8424179 C107.850261,40.4141194 110.367061,42.589194 113.753301,42.589194 Z M116.224341,35.6747463 L110.595861,35.6747463 C110.710261,34.1178507 111.991541,33.0188657 113.638901,33.0188657 C115.423541,33.0188657 116.224341,34.2781194 116.224341,35.6747463 Z M124.369866,42.2686567 L124.369866,36.3845075 C124.369866,35.5602687 124.850346,33.4309851 127.321386,33.4309851 C127.573066,33.4309851 127.801866,33.4538806 128.167946,33.5454627 L128.167946,31.0269552 C127.984906,30.9582687 127.710346,30.9582687 127.504426,30.9582687 C126.040106,30.9582687 124.918986,31.8282985 124.301226,33.1104478 L124.255466,33.1104478 L124.255466,31.278806 L121.624266,31.278806 L121.624266,42.2686567 L124.369866,42.2686567 Z M134.688991,42.589194 C136.244831,42.589194 137.709151,41.9023284 138.464191,40.6201791 L138.509951,40.6201791 L138.509951,42.2686567 L141.118271,42.2686567 L141.118271,24.9596418 L138.372671,24.9596418 L138.372671,32.6754328 L138.304031,32.6754328 C137.777791,31.9656716 136.633791,30.9582687 134.620351,30.9582687 C131.485791,30.9582687 129.289311,33.4996716 129.289311,36.7279403 C129.289311,39.9333134 131.348511,42.589194 134.688991,42.589194 Z M135.238111,40.2996418 C133.110271,40.2996418 132.080671,38.4451045 132.080671,36.7279403 C132.080671,35.0107761 133.110271,33.2020299 135.238111,33.2020299 C137.251551,33.2020299 138.464191,35.0565672 138.464191,36.7737313 C138.464191,38.4908955 137.251551,40.2996418 135.238111,40.2996418 Z M147.799476,42.543403 C149.355316,42.543403 150.659476,41.8565373 151.208596,40.8720299 L151.277236,40.8720299 L151.277236,42.2686567 L153.839796,42.2686567 L153.839796,35.5831642 C153.839796,33.385194 152.855956,30.9582687 148.943476,30.9582687 C147.273236,30.9582687 145.557236,31.5306567 144.298836,32.6983284 L145.717396,34.3697015 C146.426676,33.6599403 147.547796,33.1104478 148.714676,33.1104478 C150.087476,33.1104478 151.231476,33.7515224 151.231476,35.1252537 L151.231476,35.4 C147.822356,35.4 143.681076,35.8579104 143.681076,39.1319701 C143.681076,41.6962687 146.060596,42.543403 147.799476,42.543403 Z M148.348596,40.4599104 C147.433396,40.4599104 146.426676,40.1164776 146.426676,39.0861791 C146.426676,37.5312745 148.66658,37.275139 150.383143,37.2558056 L151.231476,37.2545373 L151.231476,37.6437612 C151.231476,39.3838209 150.247636,40.4599104 148.348596,40.4599104 Z M159.788841,42.2686567 L159.788841,36.2242388 C159.788841,34.7589254 160.543881,33.2478209 162.191241,33.2478209 C163.586921,33.2478209 164.227561,34.2552239 164.227561,35.6289552 L164.227561,42.2686567 L166.973161,42.2686567 L166.973161,36.2700299 C166.973161,34.873403 167.682441,33.2478209 169.398441,33.2478209 C171.160201,33.2478209 171.457641,34.873403 171.457641,36.1784478 L171.457641,42.2686567 L174.203241,42.2686567 L174.203241,35.4 C174.203241,33.1333433 173.013481,30.9582687 170.153481,30.9582687 C168.506121,30.9582687 167.270601,31.6909254 166.538441,33.0417612 C165.920681,31.7825075 164.822441,30.9582687 163.106441,30.9582687 C161.344681,30.9582687 160.177801,31.9656716 159.697321,33.0417612 L159.651561,33.0417612 L159.651561,31.278806 L157.043241,31.278806 L157.043241,42.2686567 L159.788841,42.2686567 Z" id="GemeenteAmsterdam" fill-rule="nonzero"></path>
                <g id="Andreaskruisen">
                    <polygon id="Path" points="0 110.795425 10.3225806 100.414194 0 90.0329619 6.88172043 83.1121408 17.2043011 93.4933724 27.5268817 83.1121408 34.4086022 90.0329619 24.0860215 100.414194 34.4086022 110.795425 27.5268817 117.716246 17.2043011 107.335015 6.88172043 117.716246"></polygon>
                    <polygon id="Path" points="0 27.6832845 10.3225806 17.3020528 0 6.92082111 6.88172043 0 17.2043011 10.3812317 27.5268817 0 34.4086022 6.92082111 24.0860215 17.3020528 34.4086022 27.6832845 27.5268817 34.6041056 17.2043011 24.2228739 6.88172043 34.6041056"></polygon>
                    <polygon id="Path" points="0 69.2739589 10.3225806 58.8927273 0 48.5114956 6.88172043 41.5906745 17.2043011 51.9719062 27.5268817 41.5906745 34.4086022 48.5114956 24.0860215 58.8927273 34.4086022 69.2739589 27.5268817 76.1947801 17.2043011 65.8135484 6.88172043 76.1947801"></polygon>
                </g>
            </g>
        </g>
    </g>
</svg>